<svg xmlns="http://www.w3.org/2000/svg" xmlns:xlink="http://www.w3.org/1999/xlink"   viewBox="248 198 739 449"><path fill="#F67617" d="M568.007 210.574C577.326 209.749 594.456 210.305 604.529 210.32L673.062 210.363L772.044 210.355C797.817 210.356 830.727 208.499 855.151 214.522C895.516 224.477 929.421 248.206 950.802 284.179C970.833 318.153 976.632 358.667 966.937 396.899C960.327 422.977 946.712 446.749 927.566 465.644C903.318 489.488 873.493 504.531 839.466 507.884C828.187 508.995 812.027 508.532 800.277 508.549L736.536 508.71C728.498 508.752 693.794 508.051 689.017 509.931C676.856 514.719 651.487 530.924 639.503 538.166C611.905 555.044 584.17 571.694 556.298 588.116C545.192 594.805 517.047 612.968 506.031 615.822C512.054 606.189 524.807 594.496 533.114 585.972L577.602 540.235L649.053 467.024C659.003 456.853 676.854 437.592 687.285 428.613C726.555 427.735 766.105 428.806 805.403 428.326C816.581 428.19 828.388 428.783 839.373 426.583C850.595 424.367 861.123 419.498 870.079 412.382C884.527 400.768 891.556 384.82 893.861 366.762C898.513 330.323 874.335 297.02 838.618 289.13C821.967 285.451 801.117 287.061 783.533 287.124L682.539 287.23C668.724 287.253 642.916 288.163 630.489 286.931C626.261 283.824 618.2 273.498 614.423 268.933L589.174 238.228C582.38 230.009 574.98 221.554 568.407 213.113C567.447 211.879 567.707 211.809 568.007 210.574Z"/><path fill="#F9A152" d="M575.005 214.503L753.494 214.399L798.174 214.351C808.802 214.308 821.344 214.022 831.808 214.916C871.77 218.426 908.721 237.606 934.594 268.271C936.241 270.228 943.236 279.055 943.091 280.743C942.639 280.198 939.249 275.987 939.257 275.991C934.57 273.791 923.449 260.44 919.705 259.073C905.292 254.264 887.199 252.997 871.885 252.495C860.334 252.117 855.913 254.448 843.495 251.814C835.922 250.208 814.985 253.056 807.51 255.08C802.058 254.742 795.948 257.592 791.157 257.383C776.688 256.751 762.282 256.129 747.783 256.375C741.068 256.488 734.477 258.746 727.738 258.733L727.021 258.725L726.976 259.053L778.682 259.015C804.066 258.997 829.45 256.895 852.977 267.841C856.434 269.45 871.894 277.169 873.088 279.618C873.258 279.648 857.565 270.834 855.703 269.899C830.286 257.153 803.127 259.598 775.28 259.597L700.165 259.655C686.36 259.689 671.804 259.966 657.745 259.585C634.192 258.947 607.511 247.109 589.689 231.98C586.969 229.671 578.717 218.55 575.005 214.503Z"/><path fill="#17212F" d="M489.203 312.759C567.063 311.799 646.394 312.576 724.38 312.639L793.356 312.712C803.659 312.726 823.357 312.223 832.646 313.711C842.132 315.321 850.892 319.818 857.73 326.589C866.614 335.233 871.553 347.152 871.386 359.549C871.307 372.155 866.521 381.934 857.662 390.63C843.006 403.102 831.997 403.28 813.55 403.278C805.736 403.278 797.631 403.373 789.796 403.403L707.477 403.612C675.956 404.059 644.432 404.339 612.908 404.452C600.702 404.528 579.499 405.289 567.777 404.365C562.064 400.134 544.163 378.234 538.296 371.396C528.025 359.432 517.822 347.409 507.686 335.33C501.83 328.396 494.272 319.945 489.203 312.759Z"/><defs><linearGradient id="gradient_0" gradientUnits="userSpaceOnUse" x1="682.57819" y1="356.63007" x2="682.43298" y2="316.89371"><stop offset="0" stop-color="#3E4657"/><stop offset="1" stop-color="#5B6472"/></linearGradient></defs><path fill="url(#gradient_0)" d="M569.383 316.647L747.066 316.677L798.104 316.826C832.634 316.904 859.638 314.438 867.438 357.274C846.962 358.397 820.046 357.638 799.195 357.628L532.242 357.718C521.52 346.223 508.162 329.281 497.797 316.951L569.383 316.647Z"/><defs><linearGradient id="gradient_1" gradientUnits="userSpaceOnUse" x1="566.40778" y1="546.71216" x2="484.08524" y2="439.18896"><stop offset="0" stop-color="#0F1826"/><stop offset="1" stop-color="#4D5462"/></linearGradient></defs><path fill="url(#gradient_1)" d="M495.78 428.003C502.607 427.667 510.275 427.707 517.125 427.801C565.083 428.453 613.489 426.852 661.395 427.801C659.152 430.857 652.965 436.802 650.108 439.673L625.627 463.946L534.038 555.346L485 604.404C479.044 610.349 456.518 633.785 450.756 636.666L449.906 636.334C448.74 630.688 454.468 609.07 456.091 602.02L464.976 562.638L495.78 428.003Z"/><path fill="#4A5362" d="M498.779 431.842L632.937 431.678C624.735 439.647 606.806 455.049 597.522 462.286C597.347 462.49 596.542 463.024 596.286 463.206C597.134 460.653 603.167 458.055 603.278 455.443C601.184 454.434 596.606 454.332 594.307 454.564C572.696 456.747 551.401 457.579 529.726 458.202C518.428 458.527 505.859 461.595 494.4 460.818C492.233 457.842 498.952 437.84 498.779 431.842Z"/><path fill="#EF5E0B" d="M410.356 210.524C420.866 210.138 537.639 209.104 540.945 212.34C548.065 219.309 600.08 279.435 601.501 284.36L600.949 285.203L598.558 285.385C557.041 286.527 512.562 287.285 470.961 287.492C469.104 286.296 467.174 284.901 465.786 283.165C447.53 260.333 428.884 237.82 410.41 215.166C409.419 213.951 408.835 212.888 408.923 211.332L410.356 210.524Z"/><path fill="#F67617" d="M488.923 213.657C495.675 212.373 507.613 213.921 515.312 214.137C521.42 219.6 529.393 229.836 535.132 236.127C547.937 250.165 561.631 268.16 574.682 281.402L501.059 282.702C492.536 282.771 479.24 283.626 471.408 282.745C467.225 278.791 457.084 265.668 453.022 260.668L415.623 214.687C426.483 214.857 437.084 213.894 447.858 213.776C461.537 213.625 475.218 213.8 488.923 213.657Z"/><path fill="#F67617" d="M372.803 339.013L428.451 338.75C437.556 338.713 458.286 337.23 465.465 341.506C469.482 346.688 467.872 361.151 467.938 368.053C468.006 375.217 469.719 388.061 465.834 393.917C461.984 396.691 454.271 397.072 449.637 396.884C430 396.089 408.418 397.95 388.949 396.713L388.331 395.412L386.619 395.373L385.925 394.508C385.376 391.5 385.084 383.063 385.695 380.147L386.922 379.496L384.064 378.536L406.995 378.613L406.979 358.329C397.061 358.141 386.939 358.495 377.056 357.924L384.217 357.084L384.204 340.542C380.412 339.969 376.611 339.459 372.803 339.013Z"/><defs><linearGradient id="gradient_2" gradientUnits="userSpaceOnUse" x1="365.34473" y1="323.14774" x2="363.63568" y2="260.8049"><stop offset="0" stop-color="#F96305"/><stop offset="1" stop-color="#FC9226"/></linearGradient></defs><path fill="url(#gradient_2)" d="M348.076 260.571C361.265 260.407 375.38 260.186 388.572 260.801C393.371 261.024 395.87 263.24 398.397 267.094C399.2 274.622 400.886 316.233 396.637 321.005C393.232 324.83 387.601 324.313 382.966 324.337C378.395 324.347 336.209 325.536 334.349 322.295C328.357 311.854 328.928 274.78 333.326 263.057C334.354 260.316 345.171 260.59 348.076 260.571Z"/><path fill="#F67617" d="M339.095 406.648C347.92 406.619 391.571 404.853 395.905 408.782C398.685 411.303 398.637 417.048 398.568 420.485C398.468 425.368 399.649 442.592 396.807 445.79C392.843 450.25 353.826 448.467 345.947 448.249C345.276 448.231 345.525 448.251 344.858 448.116L344.399 447.059C339.912 445.355 343.308 439.956 341.651 435.561L342.638 435.003L342.085 433.978L353.994 433.892L353.968 419.578C350.85 419.666 347.217 419.47 344.059 419.378C343.053 418.432 340.746 418.074 339.36 417.755C338.165 415.838 337.984 410.451 337.743 407.905C339.325 407.875 342.049 407.97 343.431 407.47L339.095 406.648Z"/><path fill="#FDD8BB" d="M290.556 396.106C290.521 392.133 290.123 382.881 291.467 379.585C295.616 377.795 321.008 378.453 327.283 378.471L357.235 378.483L384.064 378.536L386.922 379.496L385.695 380.147C385.084 383.063 385.376 391.5 385.925 394.508L386.619 395.373L388.331 395.412L388.949 396.713C369.49 396.774 350.03 396.733 330.571 396.589C325.321 396.606 320.609 396.608 315.366 396.301C308.978 396.791 296.933 396.386 290.556 396.106Z"/><path fill="#FDF2E7" d="M290.556 396.106C290.521 392.133 290.123 382.881 291.467 379.585C295.616 377.795 321.008 378.453 327.283 378.471C328.033 380.796 325.53 390.014 325.727 395.888C322.643 395.935 318.312 395.867 315.366 396.301C308.978 396.791 296.933 396.386 290.556 396.106Z"/><path fill="#F9A152" d="M357.235 378.483L384.064 378.536L386.922 379.496L385.695 380.147C385.084 383.063 385.376 391.5 385.925 394.508L386.619 395.373L388.331 395.412L388.949 396.713C369.49 396.774 350.03 396.733 330.571 396.589C333.673 396.044 354.628 395.989 359.118 395.858C359.132 390.483 360.525 385.115 359.957 380.146C359.859 379.286 358.355 378.96 357.235 378.483Z"/><path fill="#F9A152" d="M334.269 339.464C339.404 338.542 366.655 338.94 372.803 339.013C376.611 339.459 380.412 339.969 384.204 340.542L384.217 357.084L377.056 357.924C369.001 358.613 341.866 358.091 333.215 357.772L332.892 356.745C330.859 355.874 328.038 356.214 325.713 356.273C325.754 352.682 324.741 344.786 326.542 341.921C327.802 339.916 331.884 339.968 334.269 339.464Z"/><path fill="#FDD8BB" d="M276.01 303.062C277.836 303.025 282.224 303.185 285.304 302.867C298.999 301.456 311.247 302.771 303.678 320.19C302.377 323.183 291.447 321.977 287.153 321.889L258.433 321.983C258.456 316.033 258.891 309.225 259.137 303.218C264.739 303.002 270.4 303.061 276.01 303.062Z"/><path fill="#F9A152" d="M276.01 303.062C277.836 303.025 282.224 303.185 285.304 302.867C298.999 301.456 311.247 302.771 303.678 320.19C302.377 323.183 291.447 321.977 287.153 321.889C287.265 321.613 287.364 305.49 287.388 303.801L276.01 303.062Z"/><path fill="#FDF2E7" d="M287.985 339.576C303.22 339.472 319.082 339.147 334.269 339.464C331.884 339.968 327.802 339.916 326.542 341.921C324.741 344.786 325.754 352.682 325.713 356.273C328.038 356.214 330.859 355.874 332.892 356.745L333.215 357.772C320.378 358.295 300.566 357.901 287.605 357.525C287.502 351.281 287.699 345.823 287.985 339.576Z"/><defs><linearGradient id="gradient_3" gradientUnits="userSpaceOnUse" x1="315.85065" y1="412.36346" x2="289.86484" y2="413.46402"><stop offset="0" stop-color="#FCE1CA"/><stop offset="1" stop-color="#FBFDFF"/></linearGradient></defs><path fill="url(#gradient_3)" d="M317.279 406.603C324.489 406.577 331.905 406.459 339.095 406.648L343.431 407.47C342.049 407.97 339.325 407.875 337.743 407.905C337.984 410.451 338.165 415.838 339.36 417.755C340.746 418.074 343.053 418.432 344.059 419.378C337.244 419.619 330.426 419.733 323.606 419.719C311.931 419.931 300.253 419.964 288.576 419.817C288.732 415.486 288.655 411.033 288.638 406.691C298.184 406.518 307.732 406.489 317.279 406.603Z"/><path fill="#FDD8BB" d="M317.279 406.603C324.489 406.577 331.905 406.459 339.095 406.648L343.431 407.47C342.049 407.97 339.325 407.875 337.743 407.905C337.984 410.451 338.165 415.838 339.36 417.755C340.746 418.074 343.053 418.432 344.059 419.378C337.244 419.619 330.426 419.733 323.606 419.719L323.862 419.431L323.798 418.494C320.879 416.622 318.754 419.776 315.282 416.578C314.939 414.328 316.348 410.294 317.02 407.895C318.505 407.873 321.792 407.999 322.984 407.46L317.279 406.603Z"/><path fill="#FDD8BB" d="M299.304 434.047C313.17 433.679 328.138 433.966 342.085 433.978L342.638 435.003L341.651 435.561C343.308 439.956 339.912 445.355 344.399 447.059L344.858 448.116C335.619 448.453 307.065 448.89 299.29 447.944C299.12 443.518 299.271 438.517 299.304 434.047Z"/><path fill="#F9A152" d="M294.728 261.213C299.623 260.853 307.023 261.049 312.103 261.034C314.806 261.053 317.994 260.683 320.076 262.766C323.779 266.47 323.86 274.684 320.574 278.772C318.334 279.93 314.525 279.668 311.886 279.653L300.065 279.597C297.272 279.715 293.331 279.902 290.767 278.949C287.562 275.381 288.729 267.162 290.502 263.056C291.13 261.603 293.388 261.466 294.728 261.213Z"/><path fill="#F67617" d="M312.103 261.034C314.806 261.053 317.994 260.683 320.076 262.766C323.779 266.47 323.86 274.684 320.574 278.772C318.334 279.93 314.525 279.668 311.886 279.653C314.222 277.705 312.501 264.524 312.103 261.034Z"/><path fill="#F67617" d="M294.728 261.213C299.623 260.853 307.023 261.049 312.103 261.034C312.501 264.524 314.222 277.705 311.886 279.653L300.065 279.597C302.485 279.169 304.496 278.968 306.716 277.916C304.749 273.222 305.016 270.311 304.482 265.356L304.406 265.626C304.083 264.409 303.697 263.271 303.311 262.075C300.916 261.353 297.328 261.339 294.728 261.213Z"/></svg>